<?xml version="1.0" encoding="UTF-8"?>
<svg width="146px" height="72px" viewBox="0 0 146 72" version="1.1" xmlns="http://www.w3.org/2000/svg" xmlns:xlink="http://www.w3.org/1999/xlink">
    <!-- Generator: Sketch 52.4 (67378) - http://www.bohemiancoding.com/sketch -->
    <title>Ride-logo-whiteandgreen</title>
    <desc>Created with Sketch.</desc>
    <defs>
        <linearGradient x1="16.8733754%" y1="7.01566406%" x2="160.074267%" y2="-27.6799837%" id="linearGradient-1">
            <stop stop-color="#000000" stop-opacity="0" offset="0%"></stop>
            <stop stop-color="#000000" offset="100%"></stop>
        </linearGradient>
    </defs>
    <g id="001--Landing-page----DeskTop" stroke="none" stroke-width="1" fill="none" fill-rule="evenodd">
        <g id="Home-Desktop-v3-for-implementation" transform="translate(-123.000000, -38.000000)">
            <g id="Ride-logo-whiteandgreen" transform="translate(113.000000, 30.000000)">
                <g id="Group-2" stroke-width="1" fill-rule="evenodd" transform="translate(10.285714, 8.571429)">
                    <g id="Group" transform="translate(2.857143, 0.000000)" fill="#FFFFFF">
                        <path d="M31.5787192,-4.4523118e-14 L8.10955665,-4.4523118e-14 C7.57822214,-0.0019908011 7.09818115,0.315476328 6.89389998,0.803954337 C6.68961881,1.29243235 6.80146633,1.85539099 7.17714286,2.22959184 L10.6096552,5.64795918 L0.542660099,55.5663265 L13.555468,55.5663265 L17.8640394,34.494898 L22.8027586,34.494898 L28.6790148,55.5663265 L42.9418719,55.5663265 L35.497931,32.8571429 C43.8025616,29.4234694 47.5629557,22.2397959 47.5629557,16.0765306 C47.5629557,7.48979592 43.2543842,-4.4523118e-14 31.5787192,-4.4523118e-14 Z M26.7988177,23.7244898 L19.9799015,23.7244898 L22.4851232,11.5510204 L29.3860099,11.5510204 C32.5982266,11.5510204 34.4784236,13.3469388 34.4784236,16.7806122 C34.4784236,19.0408163 32.9875862,23.7244898 26.7988177,23.7244898 Z" id="Shape" fill-rule="nonzero"></path>
                        <path d="M47.3142857,55.3249134 L54.8202257,19.3758555 L66.1865292,19.3758555 L58.6805893,55.3249134 L47.3142857,55.3249134 Z M96.4549784,10.2132636 L93.1570739,7.33407807 C92.4438598,6.71141732 92.3704518,5.6284768 92.9931126,4.91526272 C93.3186586,4.5423726 93.7894986,4.32840402 94.2845009,4.32840402 L108.656808,4.32840402 L108.388395,4.47959184 L109.012975,4.47959184 L98.6509464,54.1709334 L87.7258273,54.1709334 L88.3759938,51.0287277 C86.0591319,53.3880047 82.7984985,54.6836783 79.4187893,54.5880403 C71.2568778,54.5880403 69.1438367,48.5872616 69.1438367,44.7443163 C69.1438367,42.1638146 69.6546818,39.0939074 70.4557798,35.3955591 C72.2031022,27.0200515 73.6601718,22.4096293 76.4291844,19.7568291 C79.4187893,16.8982561 82.7683078,16.1975165 86.1178262,16.1975165 C89.6182762,16.1975165 92.602076,17.3932231 94.50033,19.6177935 L96.4549784,10.2132636 Z M91.2611076,35.406682 L91.2378874,35.406682 C91.6601078,33.5445338 91.9279753,31.6533167 92.0389854,29.7507117 C92.0389854,28.6328651 91.8938589,26.0523634 88.6140012,26.0523634 C84.3879189,26.0523634 83.1514416,29.049972 81.8394985,35.406682 C81.4169344,37.2668953 81.1490616,39.1562907 81.0384005,41.0570908 C81.0384005,42.1749374 81.1835269,44.7554391 84.4633847,44.7554391 C88.695272,44.7554391 89.9259443,41.7578305 91.2611076,35.406682 Z M137.497434,48.9230309 C133.445696,52.4528822 127.699811,54.2857143 121.948325,54.2857143 C115.401234,54.2857143 106.285714,51.3607215 106.285714,40.3847586 C106.285714,26.5011791 113.438906,14.2857143 127.145191,14.2857143 C135.732622,14.2857143 142.285714,19.5217409 142.285714,28.5341939 C142.201051,31.6993069 141.746089,34.8450493 140.929488,37.9115469 L117.579597,37.9347152 C117.497379,38.4643109 117.447285,38.9980901 117.429572,39.5333251 C117.429572,42.6378718 119.391899,44.7461834 123.382564,44.7461834 C125.452473,44.7461834 127.296488,44.2540005 128.984246,43.3434349 L126.876195,42.2916915 C126.494961,42.1014872 126.340101,41.6382449 126.530306,41.2570108 C126.66086,40.9953345 126.928154,40.8299776 127.220591,40.8299776 L135.120134,40.8299776 L135.177316,40.7866908 L135.212543,40.8299776 L135.260133,40.8299776 L135.233453,40.8556712 L139.745257,46.3996931 C138.483828,47.9943443 137.734554,48.8354569 137.497434,48.9230309 Z M126.201764,24 C123.130051,24 120.351167,25.8204289 118.857143,30.8571429 L130.630051,30.8571429 C130.770942,30.2341495 130.847023,29.5989334 130.857143,28.9611051 C130.857143,25.9716467 129.279454,24 126.201764,24 Z" id="Combined-Shape"></path>
                    </g>
                    <ellipse id="Oval" fill="#95D039" cx="38.8216749" cy="65.0816327" rx="6.25024631" ry="6.2244898"></ellipse>
                    <path d="M6.76768473,58.8265306 C4.23669273,58.8244671 1.95386232,60.3415016 0.984336218,62.6698031 C0.0148101112,64.9981046 0.549667302,67.6787998 2.33934951,69.461107 C4.12903172,71.2434141 6.82081952,71.7760672 9.15875535,70.8105364 C11.4966912,69.8450056 13.0200031,67.5715825 13.017931,65.0510204 C13.017931,63.4001831 12.3594248,61.8169597 11.1872763,60.6496415 C10.0151277,59.4823232 8.42535311,58.8265306 6.76768473,58.8265306 Z" id="Path" fill="#95D039"></path>
                    <path d="M15.7142857,66.1990685 L30,66.1990685" id="Line-2" stroke="#95D039" stroke-width="2.14285714" stroke-linecap="round" fill-rule="nonzero"></path>
                </g>
                <polygon id="Path-5" fill-opacity="0.99" fill="url(#linearGradient-1)" fill-rule="nonzero" style="mix-blend-mode: multiply;" points="21.7142857 24.7606027 29.2282366 18.8197545 23.7879464 13.8236607"></polygon>
                <circle id="Oval" fill="#FFFFFF" fill-rule="nonzero" cx="74.2857143" cy="19.4285714" r="5.71428571"></circle>
            </g>
        </g>
    </g>
</svg>